<?xml version="1.0" encoding="utf-8"?>
<!-- Generator: Adobe Illustrator 17.0.0, SVG Export Plug-In . SVG Version: 6.00 Build 0)  -->
<!DOCTYPE svg PUBLIC "-//W3C//DTD SVG 1.1//EN" "http://www.w3.org/Graphics/SVG/1.1/DTD/svg11.dtd">
<svg version="1.1" id="Layer_1" xmlns="http://www.w3.org/2000/svg" xmlns:xlink="http://www.w3.org/1999/xlink" x="0px" y="0px"
	 width="512px" height="512px" viewBox="0 0 512 512" enable-background="new 0 0 512 512" xml:space="preserve">
<g>
	<path fill="#070405" d="M27.719,108.387h59.445c13.087,0,23.696-10.609,23.696-23.696V25.45c0-13.087-10.609-23.696-23.696-23.696
		H27.719c-13.087,0-23.696,10.609-23.696,23.696v59.241C4.022,97.778,14.632,108.387,27.719,108.387z"/>
	<path fill="#070405" d="M239.413,1.754c-8.289,0-15.008,6.719-15.008,15.008v76.618c0,8.288,6.719,15.008,15.008,15.008
		c8.288,0,15.007-6.719,15.007-15.008V16.761C254.42,8.473,247.701,1.754,239.413,1.754z"/>
	<path fill="#070405" d="M284.435,1.754c-8.288,0-15.008,6.719-15.008,15.008v76.618c0,8.288,6.719,15.008,15.008,15.008
		c8.289,0,15.008-6.719,15.008-15.008V16.761C299.443,8.473,292.724,1.754,284.435,1.754z"/>
	<path fill="#070405" d="M417.685,107.128c1.453,0.839,3.076,1.259,4.698,1.259c1.622,0,3.244-0.42,4.698-1.259l76.199-43.994
		c2.907-1.678,4.698-4.78,4.698-8.137c0-3.356-1.791-6.458-4.698-8.136L427.08,2.867c-1.454-0.839-3.075-1.259-4.698-1.259
		c-1.622,0-3.244,0.42-4.698,1.259c-2.907,1.678-4.698,4.78-4.698,8.136v87.988C412.988,102.348,414.779,105.45,417.685,107.128z"/>
	<path fill="#070405" d="M503.28,247.864L427.08,203.87c-1.454-0.839-3.075-1.259-4.698-1.259c-1.622,0-3.244,0.42-4.698,1.259
		c-2.907,1.678-4.698,4.78-4.698,8.136v87.988c0,3.357,1.791,6.458,4.698,8.136c1.453,0.839,3.076,1.259,4.698,1.259
		c1.622,0,3.244-0.419,4.698-1.259l76.199-43.994c2.907-1.678,4.698-4.78,4.698-8.136
		C507.978,252.643,506.186,249.542,503.28,247.864z"/>
	<path fill="#070405" d="M411.415,256c0-3.357-1.791-6.458-4.698-8.136l-76.2-43.994c-1.453-0.839-3.075-1.259-4.698-1.259
		c-1.622,0-3.244,0.42-4.698,1.259c-2.907,1.678-4.698,4.78-4.698,8.136v87.988c0,3.357,1.791,6.458,4.698,8.136
		c1.454,0.839,3.076,1.259,4.698,1.259c1.622,0,3.244-0.419,4.698-1.259l76.2-43.994C409.625,262.458,411.415,259.357,411.415,256z"
		/>
	<path fill="#070405" d="M8.72,264.173l76.199,43.994c1.454,0.839,3.076,1.259,4.698,1.259c1.622,0,3.244-0.419,4.697-1.259
		c2.907-1.678,4.698-4.78,4.698-8.136v-87.988c0-3.356-1.791-6.458-4.698-8.136c-1.453-0.839-3.075-1.259-4.697-1.259
		c-1.622,0-3.244,0.42-4.698,1.259L8.72,247.9c-2.907,1.678-4.698,4.78-4.698,8.136C4.022,259.393,5.814,262.495,8.72,264.173z"/>
	<path fill="#070405" d="M190.877,203.906c-1.453-0.839-3.076-1.259-4.697-1.259c-1.622,0-3.244,0.42-4.698,1.259L105.283,247.9
		c-2.907,1.678-4.698,4.78-4.698,8.136c0,3.357,1.791,6.458,4.698,8.136l76.199,43.994c1.454,0.839,3.076,1.259,4.698,1.259
		c1.621,0,3.244-0.419,4.697-1.259c2.907-1.678,4.698-4.78,4.698-8.136v-87.988C195.575,208.686,193.784,205.584,190.877,203.906z"
		/>
	<path fill="#070405" d="M19.03,403.686c-8.288,0-15.008,6.719-15.008,15.008v76.618c0,8.288,6.719,15.008,15.008,15.008
		c8.289,0,15.008-6.719,15.008-15.008v-38.309v-38.309C34.038,410.405,27.319,403.686,19.03,403.686z"/>
	<path fill="#070405" d="M124.33,404.872c-1.454-0.839-3.076-1.259-4.698-1.259s-3.244,0.42-4.697,1.259l-76.2,43.994
		c-2.907,1.678-4.698,4.78-4.698,8.136s1.791,6.458,4.698,8.136l76.2,43.994c1.453,0.839,3.075,1.259,4.697,1.259
		c1.622,0,3.244-0.42,4.698-1.259c2.907-1.678,4.697-4.78,4.697-8.136v-87.988C129.028,409.652,127.237,406.55,124.33,404.872z"/>
	<path fill="#070405" d="M492.97,403.686c-8.288,0-15.008,6.719-15.008,15.008v38.309v38.309c0,8.288,6.719,15.008,15.008,15.008
		c8.288,0,15.008-6.719,15.008-15.008v-76.618C507.978,410.405,501.258,403.686,492.97,403.686z"/>
	<path fill="#070405" d="M473.265,448.866l-76.2-43.994c-1.453-0.839-3.075-1.259-4.697-1.259c-1.622,0-3.244,0.42-4.698,1.259
		c-2.907,1.678-4.697,4.78-4.697,8.136v87.988c0,3.356,1.791,6.458,4.697,8.136c1.454,0.839,3.076,1.259,4.698,1.259
		c1.622,0,3.244-0.42,4.697-1.259l76.2-43.994c2.907-1.678,4.697-4.78,4.697-8.136S476.171,450.544,473.265,448.866z"/>
</g>
</svg>
